<svg width="195" height="160" xmlns="http://www.w3.org/2000/svg" xmlns:xlink="http://www.w3.org/1999/xlink" xml:space="preserve" overflow="hidden"><defs><clipPath id="clip0"><rect x="631" y="351" width="195" height="160"/></clipPath></defs><g clip-path="url(#clip0)" transform="translate(-631 -351)"><path d="M61.3333 0 63.1111 0C77.3478-3.94746e-15 88.8889 11.5411 88.8889 25.7778L88.8889 36.4444C88.8889 50.6812 77.3478 62.2222 63.1111 62.2222L61.3333 62.2222C47.0966 62.2222 35.5556 50.6812 35.5556 36.4444L35.5556 25.7778C35.5556 11.5411 47.0966 8.4771e-07 61.3333 8.4771e-07ZM131.644 40.7111 94.7556 92.4444C96.7644 96.9156 97.7867 101.769 97.7778 106.667L97.7778 148.178C97.7485 154.695 92.4729 159.971 85.9556 160L38.4889 159.911C31.9882 159.926 26.701 154.678 26.6667 148.178L26.6667 106.667C26.7252 87.0542 42.6098 71.1697 62.2222 71.1111 69.794 71.098 77.162 73.5644 83.2 78.1333L117.244 30.4C120.437 26.671 126.049 26.2366 129.778 29.4296 133.057 32.2378 133.844 36.9963 131.644 40.7111Z" fill="#A277FF" fill-rule="evenodd" transform="matrix(1.21875 0 0 1 631 351)"/></g></svg>