<svg width="122" height="122" xmlns="http://www.w3.org/2000/svg" xmlns:xlink="http://www.w3.org/1999/xlink" xml:space="preserve" overflow="hidden"><defs><clipPath id="clip0"><rect x="294" y="114" width="292" height="292"/></clipPath></defs><g clip-path="url(#clip0)" transform="translate(-494 -214)"><path d="M781.495 301.67C778.706 300.059 775.272 300.061 772.484 301.67L720.638 331.602C719.985 331.979 719.367 332.394 718.773 332.833L718.773 301.703C718.773 290.11 709.342 280.678 697.748 280.678L538.039 280.678C537.895 280.678 537.754 280.693 537.611 280.699 537.469 280.692 537.328 280.678 537.184 280.678L503.011 280.678C498.034 280.678 494 284.712 494 289.689L494 314.425C494 319.402 498.034 323.436 503.011 323.436L529.028 323.436 529.028 406.885C529.028 411.861 533.062 415.895 538.039 415.895L560.628 415.895 560.628 430.311C560.628 435.288 564.662 439.322 569.639 439.322L678.163 439.322C683.14 439.322 687.174 435.288 687.174 430.311L687.174 415.895 709.762 415.895C714.739 415.895 718.773 411.861 718.773 406.885L718.773 363.74C719.368 364.178 719.985 364.594 720.638 364.97L772.484 394.904C773.879 395.708 775.434 396.111 776.989 396.111 778.545 396.111 780.101 395.708 781.495 394.904 784.283 393.295 786 390.32 786 387.1L786 309.473C786 306.253 784.283 303.279 781.495 301.67ZM512.021 305.414 512.021 298.699 529.028 298.699 529.028 305.414 512.021 305.414ZM669.153 421.301 578.649 421.301 578.649 415.895 669.153 415.895 669.153 421.301ZM700.752 397.874 678.163 397.874 569.639 397.874 547.049 397.874 547.049 298.699 697.747 298.699C699.403 298.699 700.751 300.047 700.751 301.703L700.751 397.874ZM767.979 371.494 729.649 349.364C729.496 349.275 729.027 349.006 729.027 348.287 729.027 347.569 729.496 347.299 729.649 347.209L767.979 325.079 767.979 371.494Z" fill="#A277FF"/><path d="M601.272 311.076 566.236 311.076C561.259 311.076 557.225 315.11 557.225 320.087 557.225 325.063 561.259 329.097 566.236 329.097L601.271 329.097C606.248 329.097 610.282 325.063 610.282 320.087 610.282 315.11 606.248 311.076 601.272 311.076Z" fill="#A277FF"/></g></svg>